<?xml version="1.0" encoding="UTF-8"?>
<svg version="1.1" xmlns="http://www.w3.org/2000/svg" width="512" height="513">
<path d="M0 0 C0.80953125 0.67675781 1.6190625 1.35351562 2.453125 2.05078125 C24.89685833 21.43087614 35.21130529 47.96150572 37.75 77 C37.8536171 78.99905176 37.93823089 80.9992179 38 83 C38.03996094 83.90878906 38.07992188 84.81757812 38.12109375 85.75390625 C38.88743445 118.16561005 29.37934997 147.49791915 7.37597656 171.56933594 C-10.88244159 190.55342578 -37.91102046 199.899916 -63 205.375 C-63.70358643 205.5306543 -64.40717285 205.68630859 -65.13208008 205.84667969 C-72.0222296 207.23503489 -78.99467443 207.58770221 -86 208 C-86.04487549 209.02955811 -86.08975098 210.05911621 -86.13598633 211.11987305 C-88.34011516 260.87894586 -93.17989368 309.7046486 -109.95019531 356.89575195 C-111.08145078 360.24084806 -112.05426968 363.59830955 -113 367 C-112.04375732 367.23485107 -111.08751465 367.46970215 -110.10229492 367.71166992 C-90.33876025 372.58618553 -70.72343505 377.81449199 -51.25 383.75 C-50.37177582 384.01759125 -49.49355164 384.2851825 -48.5887146 384.56088257 C-44.37336136 385.84853797 -40.16194895 387.1477883 -35.95507812 388.46289062 C-32.52974271 389.53281766 -29.09592414 390.56772999 -25.65429688 391.58398438 C-23.93097101 392.1028029 -22.20766308 392.621681 -20.484375 393.140625 C-19.68968811 393.36917175 -18.89500122 393.59771851 -18.07623291 393.83319092 C-13.79384793 395.13897956 -10.75917083 396.26010651 -8 400 C-7.25 403.75 -7.25 403.75 -7 407 C-5.72125 407.268125 -4.4425 407.53625 -3.125 407.8125 C2.00062417 408.9451896 6.99289488 410.43201301 12 412 C12.66 410.68 13.32 409.36 14 408 C20.57809186 407.17773852 25.2330714 408.58722621 31.1875 411.1875 C31.86425781 411.47890869 32.54101562 411.77031738 33.23828125 412.07055664 C39.97405204 415.14705391 44.7675509 418.99942781 48.75 425.375 C49.32234375 426.26960938 49.8946875 427.16421875 50.484375 428.0859375 C55.04902521 436.86230104 55.33733892 447.31330542 53.41796875 456.91015625 C50.28262728 465.94394833 43.1469795 473.24623437 35.01953125 478.0625 C30.0370237 480.37546289 25.72923159 481.25065374 20.2412796 481.25726891 C19.5834619 481.26077498 18.92564419 481.26428105 18.24789262 481.26789337 C16.04607691 481.27718901 13.84452677 481.27228887 11.6427002 481.26742554 C10.04707483 481.27116276 8.4514513 481.27576457 6.85583067 481.28115618 C2.47258372 481.29339333 -1.91058695 481.29312485 -6.29384708 481.29076743 C-11.0220819 481.29035943 -15.75029221 481.30139701 -20.47851562 481.31088257 C-29.74281972 481.32749888 -39.00709837 481.33299245 -48.27141613 481.33410732 C-55.8045287 481.33505777 -63.33763288 481.33916788 -70.8707428 481.34550858 C-92.23533991 481.36312489 -113.59991692 481.37234716 -134.96452135 481.37084763 C-136.69234695 481.37072776 -136.69234695 481.37072776 -138.45507812 481.37060547 C-139.6083713 481.37052371 -140.76166448 481.37044195 -141.94990593 481.37035771 C-160.62836272 481.36954532 -179.30673877 481.38867001 -197.98517221 481.4168822 C-217.17078605 481.4456313 -236.35636055 481.45942129 -255.54199648 481.45769465 C-266.31041656 481.45703131 -277.07875206 481.46249857 -287.84715271 481.48405075 C-297.01878563 481.50228948 -306.19029566 481.50658799 -315.36193889 481.4930319 C-320.03811632 481.48651506 -324.71405819 481.48633839 -329.39021301 481.5037384 C-333.67889658 481.5195318 -337.96715904 481.51654199 -342.25583273 481.49917014 C-343.79963576 481.4961139 -345.34347071 481.49968021 -346.88723606 481.51089029 C-359.81312159 481.59846481 -371.52103155 479.36203387 -383.125 473.4375 C-383.78894775 473.10016846 -384.45289551 472.76283691 -385.13696289 472.4152832 C-401.02404043 463.91123749 -413.57118843 448.30062963 -419.21875 431.33984375 C-425.35828508 410.4873514 -424.44427312 390.20435796 -414.40722656 370.75341797 C-404.80086843 353.36409069 -388.63987568 340.31011345 -369.50756836 334.64111328 C-359.73406549 332.14230902 -349.83305263 331.69724987 -339.80303955 331.53695679 C-295.99628382 332.46954445 -295.99628382 332.46954445 -257.51171875 316.015625 C-236.15861445 287.54481927 -236.98107727 238.65826553 -236.10253906 204.50683594 C-235.9892519 201.73723458 -235.75688068 198.9885157 -235.5234375 196.2265625 C-234.44983113 185.76075902 -234.44983113 185.76075902 -238.39453125 176.48828125 C-241.32381811 173.61449868 -244.64858147 171.35382532 -248 169 C-269.66258022 147.9905629 -276.53054636 118.0203015 -277.01123047 88.87060547 C-276.92487513 66.79742886 -273.27658544 42.30015831 -260 24 C-257 22 -257 22 -253.875 22.5 C-247.55465489 21.6844716 -244.85496547 16.7439982 -241 12 C-240.41089844 11.48566406 -239.82179687 10.97132812 -239.21484375 10.44140625 C-237.78532641 9.05729698 -237.78532641 9.05729698 -237.98828125 6.984375 C-238.14876953 5.87835938 -238.14876953 5.87835938 -238.3125 4.75 C-238.37040833 1.98821811 -238.32646072 0.49444536 -236.79296875 -1.828125 C-184.3353913 -50.74281596 -52.42215826 -44.86494931 0 0 Z " fill="#010101" transform="translate(441,32)"/>
<path d="M0 0 C0.83671234 0.00093658 1.67342468 0.00187317 2.53549194 0.00283813 C15.23604218 0.03358494 27.80190204 0.2146323 40.375 2.1875 C41.34083008 2.33815918 42.30666016 2.48881836 43.30175781 2.64404297 C67.1271886 6.53520605 90.51582872 13.51804056 109.375 29.1875 C110.07753906 29.74566406 110.78007812 30.30382812 111.50390625 30.87890625 C129.56043046 45.92077599 139.00596775 68.07734862 141.375 91.1875 C142.6835826 120.73748487 139.81444205 150.68052129 119.0625 173.5 C101.70501267 191.71006287 78.88601656 202.29101799 54.375 207.1875 C53.47571777 207.37231934 52.57643555 207.55713867 51.64990234 207.74755859 C18.0936204 214.30555445 -20.18549061 214.49370475 -53.625 207.1875 C-54.63788086 206.97319336 -55.65076172 206.75888672 -56.69433594 206.53808594 C-83.9543398 200.59846569 -110.81270099 188.30125599 -126.625 164.1875 C-129.60790795 159.00636698 -132.17421253 153.63672892 -134.625 148.1875 C-135.04910156 147.25035156 -135.47320312 146.31320313 -135.91015625 145.34765625 C-142.11691781 130.03135111 -142.15085272 113.43963568 -141.625 97.1875 C-141.5940625 95.95902344 -141.563125 94.73054688 -141.53125 93.46484375 C-140.82505378 79.21733505 -136.54218322 65.34363427 -129.8125 52.8125 C-128.40801229 49.70784296 -128.24187702 47.55898219 -128.625 44.1875 C-129.285 43.5275 -129.945 42.8675 -130.625 42.1875 C-130.04174706 35.9531741 -123.72489056 30.97946211 -119.1875 27.1875 C-118.341875 26.5275 -117.49625 25.8675 -116.625 25.1875 C-115.635 25.8475 -114.645 26.5075 -113.625 27.1875 C-106.87733064 27.3079941 -103.03927912 24.7920667 -97.53515625 21.08984375 C-69.14553915 2.53179875 -32.93789402 -0.04792069 0 0 Z " fill="#7ACFA6" transform="translate(321.625,14.8125)"/>
<path d="M0 0 C17.82 0.33 35.64 0.66 54 1 C54 10.19316771 53.96233291 19.12569558 53.25 28.25 C53.16274658 29.38058838 53.07549316 30.51117676 52.9855957 31.67602539 C50.46978507 62.67373537 47.39310306 94.23430008 38 124 C37.77731445 124.72799805 37.55462891 125.45599609 37.32519531 126.20605469 C25.34392521 165.22545197 3.33932075 200.12518807 -31 223 C-31.57766113 223.38994141 -32.15532227 223.77988281 -32.75048828 224.18164062 C-65.36800727 245.89582679 -106.43540888 254.37933399 -145 257 C-145.79841309 257.05639648 -146.59682617 257.11279297 -147.41943359 257.17089844 C-153.94298801 257.60726523 -160.46421838 257.84124735 -167 258 C-167.66692871 258.01673767 -168.33385742 258.03347534 -169.02099609 258.05072021 C-173.59285768 258.16150073 -178.16405971 258.23866671 -182.73703003 258.28509521 C-184.26424498 258.30309287 -185.79139937 258.32766548 -187.31838989 258.35943604 C-205.41434281 258.71458675 -220.36512084 253.83964878 -233.77905273 241.39379883 C-239.78786072 235.52387695 -243.94406127 228.79662412 -247 221 C-245.68209473 220.98018066 -244.36418945 220.96036133 -243.00634766 220.93994141 C-207.94926307 220.52675544 -207.94926307 220.52675544 -173 218 C-171.97583984 217.89429688 -170.95167969 217.78859375 -169.89648438 217.6796875 C-125.61444131 213.02127074 -77.02502272 203.89901801 -46.51123047 168.26123047 C-34.51470019 153.4258574 -26.48881278 136.8398246 -20 119 C-19.58838623 117.89011719 -19.58838623 117.89011719 -19.16845703 116.7578125 C-13.53280735 101.31118332 -10.83636752 85.14018252 -8 69 C-7.80664062 67.92959473 -7.61328125 66.85918945 -7.4140625 65.75634766 C-3.52783152 43.99838239 -1.93718502 22.00088702 0 0 Z " fill="#F1E3B5" transform="translate(285,240)"/>
<path d="M0 0 C4.03447322 0.737817 7.27557356 1.94852148 11 3.6875 C23.06419282 9.0949588 36.10895274 12.2367017 49 15 C47.81759632 44.87125094 44.79328261 73.92366244 38.59228516 103.18505859 C38.07852883 105.62677767 37.58837339 108.07158906 37.10546875 110.51953125 C32.23961341 134.15208038 22.31424336 157.2920975 7 176 C6.46246094 176.70125 5.92492187 177.4025 5.37109375 178.125 C-19.1615915 208.62177163 -64.40169013 217.1567471 -100.90332031 221.36132812 C-129.55601774 224.40476916 -158.22779106 224.13261903 -187 224 C-187.04239036 220.96729921 -187.07328198 217.93519912 -187.09765625 214.90234375 C-187.11074829 214.05007202 -187.12384033 213.19780029 -187.1373291 212.31970215 C-187.17999025 205.23283271 -186.06206791 199.44405336 -183 193 C-182.53722656 192.01902344 -182.07445312 191.03804687 -181.59765625 190.02734375 C-174.25080188 176.10604268 -162.303864 165.62892028 -147.5 160.1875 C-136.9977059 157.24228062 -126.64787621 156.72251963 -115.82305908 156.59381104 C-99.39918226 156.37824371 -83.27142081 155.37622812 -67 153 C-66.2255957 152.88930176 -65.45119141 152.77860352 -64.65332031 152.66455078 C-49.94224973 150.45958893 -32.95001226 145.2094164 -23.39453125 133.07421875 C1.27925449 96.37455425 -1.77410028 42.47648359 0 0 Z " fill="#7ACEA6" transform="translate(221,222)"/>
<path d="M0 0 C17.82 0.33 35.64 0.66 54 1 C54 10.19316771 53.96233291 19.12569558 53.25 28.25 C53.11911987 29.94588257 53.11911987 29.94588257 52.9855957 31.67602539 C50.46978507 62.67373537 47.39310306 94.23430008 38 124 C37.77731445 124.72799805 37.55462891 125.45599609 37.32519531 126.20605469 C31.25598586 145.97164655 22.86339513 165.00096794 11 182 C3.73757645 179.72812611 -3.12132026 176.85815737 -10.0625 173.75 C-12.27077318 172.76939577 -14.47910659 171.78892719 -16.6875 170.80859375 C-17.75871094 170.33147949 -18.82992188 169.85436523 -19.93359375 169.36279297 C-24.13566172 167.49528155 -28.34781398 165.65131527 -32.5625 163.8125 C-33.83464877 163.25654097 -35.10678582 162.70055511 -36.37890625 162.14453125 C-37.24386719 161.76683594 -38.10882813 161.38914062 -39 161 C-38.39071888 158.11673092 -37.50738156 155.89884729 -35.99609375 153.375 C-35.58907227 152.67898682 -35.18205078 151.98297363 -34.76269531 151.26586914 C-34.32538086 150.51813232 -33.88806641 149.77039551 -33.4375 149 C-27.94990381 139.34746406 -23.7740245 129.42767565 -20 119 C-19.72704102 118.26297852 -19.45408203 117.52595703 -19.17285156 116.76660156 C-13.53510164 101.31679739 -10.83700807 85.14382757 -8 69 C-7.80664062 67.92959473 -7.61328125 66.85918945 -7.4140625 65.75634766 C-3.52783152 43.99838239 -1.93718502 22.00088702 0 0 Z " fill="#F1E3B6" transform="translate(285,240)"/>
<path d="M0 0 C7.03868527 0.62598442 13.70362765 1.9452321 20.5625 3.625 C21.64877686 3.88861328 22.73505371 4.15222656 23.85424805 4.42382812 C34.38436573 7.02194167 44.78302847 10.01858097 55.16601562 13.14746094 C57.91537442 13.97454234 60.66793979 14.78986575 63.421875 15.6015625 C71.02880351 17.85105725 78.60650947 20.15670353 86.125 22.6875 C87.90970703 23.28691406 87.90970703 23.28691406 89.73046875 23.8984375 C91.77594012 24.58759273 93.8203871 25.2798046 95.86328125 25.9765625 C101.11590177 27.68226931 105.47200824 28.65586343 111 28 C111.7115625 27.28457031 112.423125 26.56914062 113.15625 25.83203125 C116 24 116 24 118.0534668 24.10522461 C120.50137993 24.67456107 122.81648436 25.41740073 125.1875 26.25 C126.00669922 26.4871875 126.82589844 26.724375 127.66992188 26.96875 C130.05961578 27.77121511 131.95946676 28.51494209 134 30 C134.88497023 32.07073535 135.22198371 33.93828743 135.55541992 36.15991211 C135.87124118 38.27343045 135.87124118 38.27343045 138.2578125 39.86328125 C141.10866946 41.04504674 143.97103075 42.14282535 146.875 43.1875 C153.87673697 46.04165633 157.64949148 50.01435512 161.4375 56.4375 C162.5140206 61.34164939 162.59015282 66.22954154 161 71 C152.96899408 70.30404054 145.12917941 68.75786449 137.22763062 67.21893311 C96.13793571 59.24076492 55.00865154 53.91301752 13.375 49.75 C11.41430573 49.55375534 11.41430573 49.55375534 9.41400146 49.35354614 C5.63828073 48.97736415 1.86221553 48.60491762 -1.9140625 48.234375 C-3.02728882 48.12417526 -4.14051514 48.01397552 -5.28747559 47.9004364 C-12.15575969 47.23376141 -19.0219255 46.70265506 -25.90927124 46.27301025 C-28.67717941 46.02851539 -31.29164812 45.60743432 -34 45 C-34 44.34 -34 43.68 -34 43 C-32.56640625 41.66015625 -32.56640625 41.66015625 -30.5625 40.0625 C-18.23324784 29.52855999 -7.88041643 14.13154846 0 0 Z " fill="#79CEA5" transform="translate(318,414)"/>
<path d="M0 0 C1.32 0.99 2.64 1.98 4 3 C3.61328125 3.85078125 3.2265625 4.7015625 2.828125 5.578125 C-10.28375207 36.08595778 -9.54107346 71.41920644 2.15722656 102.26733398 C14.4122703 132.83757268 38.93030699 155.13051578 68.83886719 168.09863281 C91.72844575 177.59604579 115.80474016 180.95430501 140.375 182.125 C142.09377967 182.21165298 143.81253006 182.29888903 145.53125 182.38671875 C149.68719397 182.59784891 153.84345084 182.8011557 158 183 C158 183.33 158 183.66 158 184 C144.80092003 186.32068801 131.68249545 186.39905637 118.3125 186.375 C117.17993774 186.37445618 116.04737549 186.37391235 114.88049316 186.37335205 C97.58520883 186.3351463 80.95085307 185.7035951 64 182 C62.98711914 181.78569336 61.97423828 181.57138672 60.93066406 181.35058594 C33.6706602 175.41096569 6.81229901 163.11375599 -9 139 C-11.98290795 133.81886698 -14.54921253 128.44922892 -17 123 C-17.42410156 122.06285156 -17.84820312 121.12570313 -18.28515625 120.16015625 C-24.49191781 104.84385111 -24.52585272 88.25213568 -24 72 C-23.9690625 70.77152344 -23.938125 69.54304688 -23.90625 68.27734375 C-23.20005378 54.02983505 -18.91718322 40.15613427 -12.1875 27.625 C-10.78301229 24.52034296 -10.61687702 22.37148219 -11 19 C-11.66 18.34 -12.32 17.68 -13 17 C-12.67993117 13.50106578 -11.0638619 11.60271796 -8.75 9.0625 C-8.12480469 8.37285156 -7.49960938 7.68320312 -6.85546875 6.97265625 C-4.61788421 4.59375058 -2.34455029 2.27350331 0 0 Z " fill="#67BD95" transform="translate(204,40)"/>
<path d="M0 0 C17.82 0.33 35.64 0.66 54 1 C54 10.19357427 53.96094221 19.12540466 53.25 28.25 C53.16564697 29.36173584 53.08129395 30.47347168 52.99438477 31.61889648 C52.17815046 41.78888462 51.08637353 51.92547238 49.9375 62.0625 C49.84964233 62.84459839 49.76178467 63.62669678 49.67126465 64.43249512 C49.4198384 66.65481276 49.16240232 68.87633393 48.90234375 71.09765625 C48.75273193 72.38164307 48.60312012 73.66562988 48.44897461 74.98852539 C48 78 48 78 47 80 C37.30817739 80.14534504 27.69533621 79.75918703 18.02294922 79.20043945 C15.60800175 79.06152219 13.19273285 78.92981822 10.77734375 78.79882812 C9.21872609 78.71136254 7.66013139 78.62348668 6.1015625 78.53515625 C5.39101715 78.49656998 4.6804718 78.4579837 3.94839478 78.41822815 C-0.42062604 78.16078618 -4.6807335 77.67314617 -9 77 C-8.80422363 75.79283325 -8.80422363 75.79283325 -8.60449219 74.5612793 C-4.63950342 49.76621165 -2.17964735 25.02558064 0 0 Z " fill="#F1E3B5" transform="translate(285,240)"/>
<path d="M0 0 C2.67681173 1.86343968 5.11966419 3.91371298 7.609375 6.01953125 C13.78668902 11.13701198 19.70326134 11.59596948 27.4921875 11.4140625 C34.53050436 10.58325895 39.60841393 7.403421 44.75 2.6875 C47.10503225 0.55359754 47.89238122 0.02367613 51.125 -0.6875 C55.04765452 0.25052608 56.58830109 1.80804556 59 5 C59.6875 7.375 59.6875 7.375 59 10 C56.43848781 13.69017849 53.74040859 16.50639428 50 19 C49.56442368 21.33051587 49.56442368 21.33051587 49.6628418 24.07299805 C49.66241379 25.13137375 49.66198578 26.18974945 49.6615448 27.28019714 C49.6739772 28.42909927 49.68640961 29.5780014 49.69921875 30.76171875 C49.69157377 33.18424751 49.68308337 35.60677373 49.67382812 38.02929688 C49.67603631 41.85656504 49.68746988 45.68332574 49.71508789 49.51049805 C49.73583218 53.19892861 49.71975317 56.88581891 49.69921875 60.57421875 C49.71772385 61.71299973 49.73622894 62.8517807 49.7552948 64.02507019 C49.69675251 70.38679536 49.11434369 74.18480927 44.58088684 78.80793762 C40.98571258 81.51886662 37.31701941 81.42462486 33 81 C30.94140625 79.8125 30.94140625 79.8125 28.875 78.375 C26.91592905 76.98988527 26.91592905 76.98988527 25 76 C22.29164947 76.34977824 22.29164947 76.34977824 20 78 C15.39632046 80.60207974 12.31855334 81.58020582 7 81 C2.77224988 79.17438063 1.05451575 77.06010256 -1 73 C-1.35162354 70.38905334 -1.35162354 70.38905334 -1.32128906 67.57055664 C-1.31848938 66.50917984 -1.3156897 65.44780304 -1.31280518 64.35426331 C-1.29723572 63.21770798 -1.28166626 62.08115265 -1.265625 60.91015625 C-1.26839591 58.49283697 -1.27233819 56.07551881 -1.27734375 53.65820312 C-1.26898534 49.85487969 -1.24989257 46.05239186 -1.20947266 42.24926758 C-1.176626 38.57306065 -1.18697391 34.8989296 -1.203125 31.22265625 C-1.17945862 30.08812515 -1.15579224 28.95359406 -1.13140869 27.78468323 C-1.06041489 22.01383315 -1.06041489 22.01383315 -3.54138184 17.01583862 C-5.36935461 15.40868348 -5.36935461 15.40868348 -7.30145264 14.17576599 C-9 13 -9 13 -11 10 C-11.45667063 6.4227467 -11.43777431 4.66541695 -9.4375 1.625 C-5.84697519 -0.76868321 -4.27217813 -0.82687319 0 0 Z " fill="#010202" transform="translate(317,100)"/>
<path d="M0 0 C1.63659287 3.53761172 3.27229403 7.0756343 4.90722656 10.61401367 C5.73196798 12.39848459 6.55738273 14.18264426 7.3828125 15.96679688 C8.92679596 19.30895618 10.46355695 22.65436949 12 26 C12.42345703 26.90766113 12.84691406 27.81532227 13.28320312 28.75048828 C13.83137695 29.94327393 13.83137695 29.94327393 14.390625 31.16015625 C14.70547852 31.83828369 15.02033203 32.51641113 15.34472656 33.21508789 C16 35 16 35 16 38 C18.31 38 20.62 38 23 38 C23 38.33 23 38.66 23 39 C9.00860418 40.56303012 -4.9237008 41.65808989 -19 42 C-19.66692871 42.01673767 -20.33385742 42.03347534 -21.02099609 42.05072021 C-25.59285768 42.16150073 -30.16405971 42.23866671 -34.73703003 42.28509521 C-36.26424498 42.30309287 -37.79139937 42.32766548 -39.31838989 42.35943604 C-57.41434281 42.71458675 -72.36512084 37.83964878 -85.77905273 25.39379883 C-91.78786072 19.52387695 -95.94406127 12.79662412 -99 5 C-97.02314209 4.970271 -97.02314209 4.970271 -95.00634766 4.93994141 C-67.44977275 4.51148376 -40.06650405 4.02667651 -12.68603516 0.60961914 C-8.43163644 0.08844743 -4.28468131 -0.07780225 0 0 Z " fill="#E5D5A2" transform="translate(137,456)"/>
<path d="M0 0 C1.09329117 0.0659285 2.18658234 0.13185699 3.31300354 0.19978333 C6.74175809 0.41743751 10.1649741 0.6776045 13.58984375 0.94921875 C14.64097351 1.02799255 15.69210327 1.10676636 16.77508545 1.18792725 C24.2010668 1.75124734 31.61400364 2.42794576 39.02734375 3.13671875 C40.17217224 3.24426483 41.31700073 3.35181091 42.496521 3.46261597 C67.58407435 5.82576098 92.59821889 8.73436961 117.58984375 11.94921875 C118.35683594 12.0471875 119.12382812 12.14515625 119.9140625 12.24609375 C135.75678705 14.27282067 151.3251475 16.9688287 166.92773438 20.38085938 C173.12217516 21.70337021 179.35743569 22.82188612 185.58984375 23.94921875 C185.58984375 24.27921875 185.58984375 24.60921875 185.58984375 24.94921875 C104.07984375 24.94921875 22.56984375 24.94921875 -61.41015625 24.94921875 C-58.95188726 23.31037275 -57.11975454 22.36409679 -54.41015625 21.35546875 C-35.20723269 14.23307897 -35.20723269 14.23307897 -17.76649475 3.68458557 C-11.84792261 -0.62190902 -7.13357887 -0.56440204 0 0 Z " fill="#EEE0B3" transform="translate(276.41015625,473.05078125)"/>
<path d="M0 0 C0 0.33 0 0.66 0 1 C-5.94 1.33 -11.88 1.66 -18 2 C-18.94875 3.815 -19.8975 5.63 -20.875 7.5 C-21.40867188 8.5209375 -21.94234375 9.541875 -22.4921875 10.59375 C-25.74064747 17.93223988 -26.38745946 24.63343698 -26.375 32.5625 C-26.37483887 33.52470459 -26.37467773 34.48690918 -26.37451172 35.47827148 C-26.21248396 45.70563418 -23.90672411 54.54995113 -20 64 C-17.36 64.33 -14.72 64.66 -12 65 C-12 65.33 -12 65.66 -12 66 C-34.66382693 67.20942363 -57.31181129 67.10457611 -80 67 C-80.04239036 63.96729921 -80.07328198 60.93519912 -80.09765625 57.90234375 C-80.11074829 57.05007202 -80.12384033 56.19780029 -80.1373291 55.31970215 C-80.17999025 48.23283271 -79.06206791 42.44405336 -76 36 C-75.53722656 35.01902344 -75.07445312 34.03804688 -74.59765625 33.02734375 C-67.25080188 19.10604268 -55.303864 8.62892028 -40.5 3.1875 C-39.00834069 2.76131163 -37.50757144 2.36594042 -36 2 C-35.21496094 1.79632813 -34.42992187 1.59265625 -33.62109375 1.3828125 C-22.64119541 -0.95061568 -11.16219706 -0.17601718 0 0 Z " fill="#67BD95" transform="translate(114,379)"/>
<path d="M0 0 C1.05477539 -0.00580078 1.05477539 -0.00580078 2.13085938 -0.01171875 C5.90062512 -0.00465265 9.39843938 0.221533 13.0625 1.125 C13.5575 3.105 13.5575 3.105 14.0625 5.125 C14.70316406 5.18816406 15.34382813 5.25132813 16.00390625 5.31640625 C23.07634611 6.31772039 26.73061591 8.46948466 31.0625 14.125 C35.22696323 19.76717599 34.67342185 26.40485964 34.0625 33.125 C33 36.4375 33 36.4375 31.0625 39.125 C30.40121094 40.07439453 30.40121094 40.07439453 29.7265625 41.04296875 C24.24016923 48.17528 16.00999543 52.87777336 7.0625 54.125 C-5.19197437 54.98819046 -15.43522253 53.65835893 -25.21875 45.69921875 C-30.10334372 41.22537496 -33.48889307 36.81302115 -34.30859375 30.07421875 C-34.49348846 20.99262553 -33.0799729 16.47223392 -26.8828125 9.96875 C-22.19566859 5.49244647 -18.15473475 2.91640662 -11.9375 1.125 C-11.36515625 0.94066406 -10.7928125 0.75632812 -10.203125 0.56640625 C-6.8149361 -0.09370642 -3.43734709 -0.01880044 0 0 Z " fill="#FDFEFE" transform="translate(247.9375,108.875)"/>
<path d="M0 0 C4.72161213 2.46223329 8.61944321 4.90085368 11.63671875 9.375 C12.71431241 13.51218993 12.2233581 17.1737597 11.63671875 21.375 C11.48734863 22.53008057 11.48734863 22.53008057 11.33496094 23.70849609 C10.7848649 27.89912444 10.17959304 32.08025774 9.48828125 36.25 C9.37307129 36.94867188 9.25786133 37.64734375 9.13916016 38.3671875 C8.20344269 42.10641996 7.29500026 43.9598062 3.9921875 46.04296875 C2.94675781 46.54441406 1.90132813 47.04585937 0.82421875 47.5625 C-0.21347656 48.07167969 -1.25117188 48.58085937 -2.3203125 49.10546875 C-11.09910302 52.76799368 -22.32165311 52.7765313 -31.30078125 49.75 C-39.25428684 46.39369155 -46.65235359 41.02757256 -50.46484375 33.078125 C-52.47098498 27.04225661 -52.55927458 20.32226928 -50.16015625 14.41015625 C-47.74905762 10.26379725 -45.49447867 6.9369829 -41.36328125 4.375 C-40.20828125 4.25125 -39.05328125 4.1275 -37.86328125 4 C-33.53097671 3.22637419 -32.81527241 1.87784451 -30.36328125 -1.625 C-21.32620526 -4.63735866 -8.72404325 -3.50421821 0 0 Z " fill="#FDFEFD" transform="translate(451.36328125,111.625)"/>
<path d="M0 0 C0.8144458 0.00902344 1.6288916 0.01804687 2.46801758 0.02734375 C3.30244385 0.03121094 4.13687012 0.03507812 4.99658203 0.0390625 C14.09062824 0.1614611 23.00472059 1.19153359 32.03051758 2.27734375 C32.03051758 8.87734375 32.03051758 15.47734375 32.03051758 22.27734375 C8.93051758 22.27734375 -14.16948242 22.27734375 -37.96948242 22.27734375 C-34.4106937 19.43031277 -31.93240056 17.61156765 -28.03198242 15.65234375 C-23.22532331 13.09839681 -18.81910443 10.19668672 -14.40698242 7.02734375 C-13.79927002 6.59083496 -13.19155762 6.15432617 -12.56542969 5.70458984 C-4.76097838 0.02440745 -4.76097838 0.02440745 0 0 Z " fill="#F2E4B6" transform="translate(287.969482421875,474.72265625)"/>
<path d="M0 0 C1.15628906 0.07025391 2.31257813 0.14050781 3.50390625 0.21289062 C6.33844415 0.38858512 9.16889763 0.5890087 12 0.8125 C12 1.1425 12 1.4725 12 1.8125 C10.88625 1.8125 9.7725 1.8125 8.625 1.8125 C3.46597257 2.45399028 0.62474717 5.24703445 -3.21875 8.55078125 C-10.15491796 14.19128862 -18.26260268 18.3911301 -26 22.8125 C7.66 23.3075 7.66 23.3075 42 23.8125 C42 17.2125 42 10.6125 42 3.8125 C54.75 4.6875 54.75 4.6875 57 5.8125 C57 12.0825 57 18.3525 57 24.8125 C17.4 24.8125 -22.2 24.8125 -63 24.8125 C-60.54173101 23.173654 -58.70959829 22.22737804 -56 21.21875 C-36.69452809 14.00581088 -36.69452809 14.00581088 -19.13476562 3.39331055 C-12.99768329 -1.18144505 -7.40208409 -0.5892839 0 0 Z " fill="#E5D5A3" transform="translate(278,473.1875)"/>
<path d="M0 0 C12.18104956 -0.12358706 24.27470824 0.36540104 36.4375 1 C38.34438359 1.09669894 40.25128458 1.1930553 42.15820312 1.2890625 C46.77234507 1.52210282 51.38622844 1.75974266 56 2 C55.85930804 4.12534659 55.71229079 6.25027529 55.5625 8.375 C55.48128906 9.55835938 55.40007812 10.74171875 55.31640625 11.9609375 C55 15 55 15 54 17 C44.30817739 17.14534504 34.69533621 16.75918703 25.02294922 16.20043945 C22.60800175 16.06152219 20.19273285 15.92981822 17.77734375 15.79882812 C16.21872609 15.71136254 14.66013139 15.62348668 13.1015625 15.53515625 C12.03574448 15.47727684 12.03574448 15.47727684 10.94839478 15.41822815 C6.55718127 15.15947849 2.37978112 14.62568302 -2 14 C-1.34 9.38 -0.68 4.76 0 0 Z " fill="#DCAF89" transform="translate(278,303)"/>
<path d="M0 0 C0.33 0.66 0.66 1.32 1 2 C2.82305219 2.77893299 2.82305219 2.77893299 5.02416992 3.39233398 C9.71310071 4.87079231 14.13451179 6.70464503 18.61328125 8.72265625 C19.39011765 9.06880478 20.16695404 9.41495331 20.96733093 9.77159119 C23.41749791 10.86463257 25.86497157 11.96356529 28.3125 13.0625 C29.97184164 13.80310095 31.63134558 14.5433384 33.29101562 15.28320312 C46.33576459 21.10926167 46.33576459 21.10926167 50 23 C48.50923566 26.2826932 46.61379679 28.93077441 44.375 31.75 C43.74335938 32.54921875 43.11171875 33.3484375 42.4609375 34.171875 C41.97882813 34.77515625 41.49671875 35.3784375 41 36 C40.67 35.34 40.34 34.68 40 34 C39.32106689 33.86505127 38.64213379 33.73010254 37.94262695 33.59106445 C33.99090442 32.79731018 30.58017226 31.19504753 26.91796875 29.54296875 C26.14495926 29.19873367 25.37194977 28.8544986 24.57551575 28.49983215 C22.9430731 27.77173127 21.31172033 27.04118251 19.68139648 26.30834961 C17.20856834 25.19696889 14.73256747 24.09293746 12.25585938 22.99023438 C10.66386974 22.2790772 9.07206679 21.5675019 7.48046875 20.85546875 C6.74998825 20.52927048 6.01950775 20.2030722 5.26689148 19.86698914 C0.44647985 17.69780218 -4.28509649 15.39012733 -9 13 C-6.09700957 8.59175527 -3.08418637 4.28359219 0 0 Z " fill="#DCAF89" transform="translate(245,399)"/>
<path d="M0 0 C1.41750563 0.11509661 2.83401169 0.24253658 4.25 0.375 C5.03890625 0.44460938 5.8278125 0.51421875 6.640625 0.5859375 C9.085877 1.01507113 10.84836903 1.78600638 13 3 C5.56734461 17.30223082 -3.55293336 29.78409854 -14 42 C-14.67675781 42.80824219 -15.35351562 43.61648438 -16.05078125 44.44921875 C-18.62936153 46.50071449 -20.18030184 46.44351074 -23.4375 46.3125 C-24.82775391 46.27576172 -24.82775391 46.27576172 -26.24609375 46.23828125 C-28.89573135 46.00902183 -31.40635893 45.57897977 -34 45 C-34 44.34 -34 43.68 -34 43 C-32.56640625 41.66015625 -32.56640625 41.66015625 -30.5625 40.0625 C-18.23324784 29.52855999 -7.88041643 14.13154846 0 0 Z " fill="#66BC94" transform="translate(318,414)"/>
<path d="M0 0 C6.6 0 13.2 0 20 0 C20 12.21 20 24.42 20 37 C18.02 36.34 16.04 35.68 14 35 C11.92181287 34.69263855 11.92181287 34.69263855 10 34.75 C9.38125 34.74484375 8.7625 34.7396875 8.125 34.734375 C5.29265404 35.01787517 5.29265404 35.01787517 0 37 C0 24.79 0 12.58 0 0 Z " fill="#D67E8A" transform="translate(331,126)"/>
<path d="M0 0 C1.63659287 3.53761172 3.27229403 7.0756343 4.90722656 10.61401367 C5.73196798 12.39848459 6.55738273 14.18264426 7.3828125 15.96679688 C8.92679596 19.30895618 10.46355695 22.65436949 12 26 C12.42345703 26.90766113 12.84691406 27.81532227 13.28320312 28.75048828 C13.64865234 29.54567871 14.01410156 30.34086914 14.390625 31.16015625 C14.70547852 31.83828369 15.02033203 32.51641113 15.34472656 33.21508789 C16 35 16 35 16 38 C18.31 38 20.62 38 23 38 C23 38.33 23 38.66 23 39 C19.83402429 39.34011625 16.6671312 39.67083187 13.5 40 C12.613125 40.09539062 11.72625 40.19078125 10.8125 40.2890625 C5.50765526 40.83514946 0.33262848 41.0996753 -5 41 C-5 40.67 -5 40.34 -5 40 C-3.02 40 -1.04 40 1 40 C0.18690936 38.17054607 -0.62621067 36.3411052 -1.43945312 34.51171875 C-2.15217503 32.90776632 -2.86440704 31.30359612 -3.57617188 29.69921875 C-5.47692573 25.41667667 -7.38589026 21.13816675 -9.3125 16.8671875 C-9.67923828 16.0510498 -10.04597656 15.23491211 -10.42382812 14.39404297 C-11.13309795 12.81620724 -11.84527087 11.23967284 -12.56054688 9.66455078 C-15 4.22486481 -15 4.22486481 -15 2 C-15.66 1.67 -16.32 1.34 -17 1 C-15.47968196 0.82869656 -13.9587061 0.66322927 -12.4375 0.5 C-11.16712891 0.36078125 -11.16712891 0.36078125 -9.87109375 0.21875 C-6.57248453 -0.03257261 -3.3069039 -0.03270115 0 0 Z " fill="#D9AC87" transform="translate(137,456)"/>
<path d="M0 0 C1.33043335 0.00507568 1.33043335 0.00507568 2.68774414 0.01025391 C3.69115845 0.01677979 3.69115845 0.01677979 4.71484375 0.0234375 C6.45216843 3.82755983 8.17919662 7.63613359 9.89672852 11.44921875 C10.48276673 12.74639898 11.0716267 14.04230816 11.66333008 15.33691406 C12.5121329 17.19531554 13.35076582 19.05801448 14.1875 20.921875 C14.69547119 22.04255371 15.20344238 23.16323242 15.72680664 24.31787109 C16.05285889 25.21070801 16.37891113 26.10354492 16.71484375 27.0234375 C16.38484375 27.6834375 16.05484375 28.3434375 15.71484375 29.0234375 C3.84607866 22.00597373 -5.29728816 13.4224443 -14.28515625 3.0234375 C-13.95515625 2.3634375 -13.62515625 1.7034375 -13.28515625 1.0234375 C-8.81203789 0.21014325 -4.54176712 -0.02257714 0 0 Z " fill="#F1E3B5" transform="translate(117.28515625,457.9765625)"/>
<path d="M0 0 C2.1640625 1.42578125 2.1640625 1.42578125 4 4 C4.59370799 7.17667896 4.55833514 10.27698373 4.5 13.5 C4.51546875 14.35464844 4.5309375 15.20929688 4.546875 16.08984375 C4.50816113 22.29374216 4.50816113 22.29374216 2.15625 25.5625 C-0.80174382 27.53449588 -2.51468971 27.58088505 -6 27 C-8.30275556 25.1329009 -9.67823871 23.64352259 -11 21 C-11.1509482 18.54709172 -11.23128564 16.14141991 -11.25 13.6875 C-11.27578125 12.37136719 -11.3015625 11.05523437 -11.328125 9.69921875 C-10.98788068 5.8633691 -10.33103099 4.0156299 -8 1 C-5.15916359 -0.42041821 -3.14522722 -0.31452272 0 0 Z " fill="#040706" transform="translate(417,89)"/>
<path d="M0 0 C2.1640625 1.42578125 2.1640625 1.42578125 4 4 C4.59370799 7.17667896 4.55833514 10.27698373 4.5 13.5 C4.51546875 14.35464844 4.5309375 15.20929688 4.546875 16.08984375 C4.50816113 22.29374216 4.50816113 22.29374216 2.15625 25.5625 C-0.80174382 27.53449588 -2.51468971 27.58088505 -6 27 C-8.30275556 25.1329009 -9.67823871 23.64352259 -11 21 C-11.1509482 18.54709172 -11.23128564 16.14141991 -11.25 13.6875 C-11.27578125 12.37136719 -11.3015625 11.05523437 -11.328125 9.69921875 C-10.98788068 5.8633691 -10.33103099 4.0156299 -8 1 C-5.15916359 -0.42041821 -3.14522722 -0.31452272 0 0 Z " fill="#050706" transform="translate(271,89)"/>
<path d="M0 0 C1.93875 0.144375 3.8775 0.28875 5.875 0.4375 C7.51082031 0.55931641 7.51082031 0.55931641 9.1796875 0.68359375 C12 1 12 1 14 2 C14 8.27 14 14.54 14 21 C9.38 21 4.76 21 0 21 C0 14.07 0 7.14 0 0 Z " fill="#DBAD87" transform="translate(321,477)"/>
<path d="M0 0 C1.84466442 0.14889747 3.69357275 0.2479101 5.54296875 0.31640625 C7.15268555 0.37924805 7.15268555 0.37924805 8.79492188 0.44335938 C9.91447266 0.48267578 11.03402344 0.52199219 12.1875 0.5625 C13.31865234 0.60568359 14.44980469 0.64886719 15.61523438 0.69335938 C18.41003354 0.79949099 21.20492162 0.90154385 24 1 C24 1.33 24 1.66 24 2 C13.11 2 2.22 2 -9 2 C-4 -1.33333333 -4 -1.33333333 0 0 Z " fill="#D8C99A" transform="translate(224,496)"/>
</svg>
